<svg width="60" height="60" viewBox="0 0 60 60" fill="none" xmlns="http://www.w3.org/2000/svg">
<path d="M7.02415 12.99C6.91306 9.79548 9.40165 6.84985 12.7659 6.84985H47.2377C50.602 6.84985 53.0906 9.79548 52.9795 12.99C52.8726 16.0584 53.0113 20.0334 54.0116 23.2744C55.0152 26.5256 56.7074 28.5802 59.4791 28.8445V31.8384C56.7074 32.1028 55.0152 34.1574 54.0116 37.4086C53.0113 40.6495 52.8726 44.6245 52.9795 47.693C53.0906 50.8875 50.602 53.8327 47.2377 53.8327H12.7659C9.40165 53.8327 6.91306 50.887 7.02415 47.693C7.13103 44.6245 6.99228 40.6495 5.99149 37.4086C4.98837 34.1578 3.29149 32.1028 0.519775 31.8384V28.8445C3.29149 28.5806 4.98837 26.5256 5.99149 23.2744C6.99228 20.0334 7.13056 16.0584 7.02415 12.99Z" fill="url(#paint0_linear_18_403)"/>
<g filter="url(#filter0_d_18_403)">
<path d="M31.4577 43.0014C36.9041 43.0014 40.1861 40.3347 40.1861 35.9362C40.1861 32.6114 37.8443 30.2043 34.3671 29.8233V29.6848C36.9218 29.2692 38.9265 26.8968 38.9265 24.2473C38.9265 20.4723 35.9461 18.0132 31.4045 18.0132H21.1858V43.0014H31.4577ZM25.1597 21.1822H30.4465C33.3205 21.1822 34.9526 22.4636 34.9526 24.7841C34.9526 27.2604 33.0544 28.6457 29.6127 28.6457H25.1597V21.1822ZM25.1597 39.8324V31.6069H30.4109C34.172 31.6069 36.1235 32.9922 36.1235 35.6937C36.1235 38.3951 34.2253 39.8324 30.6416 39.8324H25.1597Z" fill="url(#paint1_linear_18_403)"/>
</g>
<defs>
<filter id="filter0_d_18_403" x="19.1898" y="16.5162" width="22.9922" height="28.9803" filterUnits="userSpaceOnUse" color-interpolation-filters="sRGB">
<feFlood flood-opacity="0" result="BackgroundImageFix"/>
<feColorMatrix in="SourceAlpha" type="matrix" values="0 0 0 0 0 0 0 0 0 0 0 0 0 0 0 0 0 0 127 0" result="hardAlpha"/>
<feOffset dy="0.498997"/>
<feGaussianBlur stdDeviation="0.997994"/>
<feColorMatrix type="matrix" values="0 0 0 0 0 0 0 0 0 0 0 0 0 0 0 0 0 0 0.15 0"/>
<feBlend mode="normal" in2="BackgroundImageFix" result="effect1_dropShadow_18_403"/>
<feBlend mode="normal" in="SourceGraphic" in2="effect1_dropShadow_18_403" result="shape"/>
</filter>
<linearGradient id="paint0_linear_18_403" x1="9.28098" y1="8.09328" x2="60.8006" y2="48.9901" gradientUnits="userSpaceOnUse">
<stop stop-color="#9013FE"/>
<stop offset="1" stop-color="#6610F2"/>
</linearGradient>
<linearGradient id="paint1_linear_18_403" x1="22.9836" y1="19.6576" x2="34.4989" y2="39.1334" gradientUnits="userSpaceOnUse">
<stop stop-color="white"/>
<stop offset="1" stop-color="#F1E5FC"/>
</linearGradient>
</defs>
</svg>
