<svg width="60" height="60" viewBox="0 0 60 60" fill="none" xmlns="http://www.w3.org/2000/svg">
<path d="M31.3857 3.81934C30.7429 3.82189 30.1266 4.07556 29.6682 4.52621L29.6438 4.54496L13.5376 13.8543L29.5988 29.9156V29.9268L48.9113 49.2393L52.592 42.6093L39.3151 10.74L33.1276 4.55246C32.9002 4.32251 32.6296 4.13984 32.3312 4.01498C32.0329 3.89012 31.7129 3.82554 31.3895 3.82496L31.3857 3.81934Z" fill="#66C3FA"/>
<path d="M13.5937 13.7812L4.29 29.8706L4.27125 29.895C3.81991 30.3553 3.56568 30.9734 3.5625 31.6181C3.56286 31.9405 3.62717 32.2597 3.75173 32.5571C3.87629 32.8545 4.0586 33.1242 4.28812 33.3506L12 41.0625L42.1575 52.9256L48.975 49.1381L48.7875 48.9506H48.7406L29.835 30.0131H29.8125L13.5937 13.7812Z" fill="#215896"/>
<path d="M13.4851 13.8037L29.9176 30.2531H29.942L48.8551 49.1906L56.0532 47.8181L56.0626 26.5125L48.4614 19.0631C46.5661 17.3718 44.1911 16.3127 41.6664 16.0331V15.9506L13.4851 13.8037Z" fill="#235997"/>
<path d="M13.605 13.8955L30.045 30.3355V30.3599L48.9675 49.2824L47.5912 56.4805H26.2912L18.8456 48.8755C17.1554 46.9792 16.0977 44.6036 15.8194 42.0786H15.7369L13.605 13.8955Z" fill="#58B6F0"/>
</svg>
