<svg width="60" height="60" viewBox="0 0 60 60" fill="none" xmlns="http://www.w3.org/2000/svg">
<path d="M14.4196 36.5188H13.604V31.8487C13.604 31.4798 13.6279 31.0307 13.6715 30.501H13.6532C13.5764 30.8109 13.5065 31.0354 13.4451 31.1742L11.0728 36.5188H10.6753L8.29824 31.2131C8.23168 31.0649 8.16137 30.8263 8.09059 30.501H8.07277C8.09809 30.7795 8.11215 31.2313 8.11215 31.8581V36.5188H7.32512V29.564H8.40137L10.5351 34.4142C10.6959 34.7793 10.8 35.0573 10.8506 35.2467H10.8839C11.0236 34.8665 11.1342 34.581 11.2171 34.3935L13.3973 29.564H14.4187V36.5188H14.4196ZM16.9303 36.5188H16.1371V31.5524H16.9303V36.5188ZM17.0671 29.7717C17.0671 29.9184 17.0156 30.0403 16.9134 30.1406C16.8654 30.1896 16.8078 30.2282 16.7443 30.2542C16.6808 30.2801 16.6126 30.2928 16.544 30.2915C16.402 30.2915 16.2787 30.2428 16.1775 30.1457C16.0762 30.0482 16.0265 29.924 16.0265 29.7712C16.0265 29.6278 16.0762 29.5054 16.1775 29.406C16.2787 29.3067 16.402 29.2588 16.544 29.2588C16.6893 29.2588 16.8136 29.3071 16.9134 29.406C17.0156 29.5059 17.0671 29.6282 17.0671 29.7717ZM21.8864 36.2892C21.5057 36.5231 21.0515 36.6388 20.5261 36.6388C19.8136 36.6388 19.2407 36.4026 18.8029 35.9306C18.3773 35.4721 18.1636 34.8806 18.1636 34.1559C18.1636 33.3421 18.3961 32.6835 18.8653 32.1829C19.3321 31.6818 19.9593 31.4315 20.7487 31.4315C21.18 31.4315 21.5629 31.5159 21.8981 31.6837V32.4998C21.5273 32.2396 21.1354 32.1103 20.7145 32.1103C20.2087 32.1103 19.7971 32.287 19.4784 32.639C19.1461 32.9999 18.9778 33.4818 18.9778 34.0837C18.9778 34.6612 19.1315 35.1192 19.4367 35.4567C19.7428 35.7928 20.1506 35.961 20.6653 35.961C21.0993 35.961 21.5062 35.8181 21.8868 35.534L21.8864 36.2892ZM25.6809 32.3582C25.5407 32.2504 25.3392 32.1984 25.0734 32.1984C24.7504 32.1984 24.4786 32.3428 24.2592 32.6343C24.0098 32.9596 23.8861 33.4106 23.8861 33.9871V36.5188H23.0906V31.552H23.8861V32.5762H23.9053C24.022 32.2138 24.2025 31.9349 24.4434 31.7371C24.6575 31.5604 24.9266 31.4642 25.2042 31.4653C25.4161 31.4653 25.5731 31.4882 25.6804 31.5332V32.3578L25.6809 32.3582ZM30.1111 34.0443C30.1111 33.4087 29.9676 32.9226 29.6807 32.5898C29.4023 32.2696 29.0128 32.1098 28.5112 32.1098C28.0171 32.1098 27.6206 32.2715 27.3239 32.5954C27.0107 32.9418 26.8542 33.4303 26.8542 34.0645C26.8542 34.6588 27.0028 35.1253 27.3042 35.4581C27.6032 35.7928 28.0059 35.9606 28.5112 35.9606C29.0339 35.9606 29.4342 35.7899 29.7084 35.452C29.977 35.1201 30.1111 34.6518 30.1111 34.0443ZM30.9262 34.0167C30.9262 34.8079 30.7026 35.444 30.2573 35.9203C29.8101 36.3988 29.2087 36.6379 28.4517 36.6379C27.7064 36.6379 27.1129 36.3988 26.6779 35.9203C26.2514 35.4595 26.0376 34.8501 26.0376 34.0931C26.0376 33.2287 26.2795 32.5631 26.7651 32.0901C27.2142 31.6513 27.8151 31.4306 28.5679 31.4306C29.3086 31.4306 29.887 31.6617 30.3042 32.1192C30.7176 32.5785 30.9262 33.2113 30.9262 34.0167ZM34.8689 35.1904C34.8689 35.5973 34.7175 35.9334 34.4128 36.2024C34.0804 36.4931 33.6239 36.6384 33.0496 36.6384C32.58 36.6384 32.1679 36.5399 31.8178 36.3393V35.4843C32.2068 35.8007 32.6372 35.9601 33.1087 35.9601C33.7382 35.9601 34.0537 35.7281 34.0537 35.2663C34.0564 35.176 34.0391 35.0862 34.003 35.0033C33.967 34.9204 33.913 34.8465 33.8451 34.7868C33.7054 34.6598 33.4336 34.5084 33.03 34.3303C32.6142 34.1484 32.3175 33.9613 32.1426 33.7678C31.9326 33.5376 31.8272 33.2385 31.8272 32.8701C31.8272 32.4581 31.9921 32.1149 32.3175 31.8417C32.6442 31.5674 33.0637 31.4306 33.5789 31.4306C33.9736 31.4306 34.327 31.5074 34.6411 31.6635V32.4637C34.3134 32.2274 33.9389 32.1098 33.5137 32.1098C33.2503 32.1098 33.0389 32.1754 32.8814 32.3029C32.8053 32.362 32.7441 32.438 32.7026 32.5249C32.6611 32.6118 32.6404 32.7072 32.6423 32.8035C32.6423 33.0234 32.7089 33.1945 32.8415 33.3173C32.9596 33.4303 33.21 33.5685 33.5873 33.7293C34.0111 33.907 34.3176 34.0912 34.5042 34.2796C34.7465 34.5178 34.8689 34.8215 34.8689 35.1904ZM39.7279 34.0443C39.7279 33.4087 39.584 32.9226 39.2967 32.5898C39.0182 32.2696 38.6282 32.1098 38.1276 32.1098C37.6331 32.1098 37.237 32.2715 36.9389 32.5954C36.6262 32.9418 36.4701 33.4303 36.4701 34.0645C36.4701 34.6588 36.6197 35.1253 36.9173 35.4581C37.2201 35.7928 37.6232 35.9606 38.1276 35.9606C38.6512 35.9606 39.0501 35.7899 39.3248 35.452C39.5929 35.1201 39.7279 34.6518 39.7279 34.0443ZM40.5445 34.0167C40.5445 34.8079 40.319 35.444 39.8728 35.9203C39.4275 36.3988 38.8261 36.6379 38.069 36.6379C37.3228 36.6379 36.7298 36.3988 36.2943 35.9203C35.8682 35.4595 35.654 34.8501 35.654 34.0931C35.654 33.2287 35.8982 32.5631 36.3811 32.0901C36.8301 31.6513 37.4315 31.4306 38.1853 31.4306C38.9264 31.4306 39.5039 31.6617 39.9197 32.1192C40.3336 32.5785 40.5445 33.2113 40.5445 34.0167ZM44.0475 29.8645C43.8857 29.7762 43.7039 29.7313 43.5197 29.7342C42.9628 29.7342 42.6867 30.0843 42.6867 30.7865V31.552H43.8506V32.226H42.6867V36.5188H41.8907V32.226H41.0461V31.552H41.8907V30.7471C41.8907 30.2006 42.0581 29.7717 42.3989 29.4628C42.6904 29.1942 43.0471 29.061 43.4718 29.061C43.7175 29.061 43.9087 29.0906 44.0475 29.1473V29.8645ZM47.1853 36.4692C46.9978 36.5765 46.7475 36.6299 46.4386 36.6299C45.5714 36.6299 45.1382 36.1415 45.1382 35.1637V32.2265H44.2861V31.552H45.1382V30.3403C45.3923 30.2601 45.6562 30.1729 45.9351 30.0824V31.552H47.1853V32.2265H45.9351V35.0292C45.9351 35.362 45.9895 35.6001 46.1034 35.7384C46.2182 35.8813 46.4062 35.9512 46.6711 35.9512C46.8693 35.9512 47.0404 35.8982 47.1853 35.7909V36.4692ZM4.2084 55.904C4.2084 56.2935 4.07012 56.6296 3.78887 56.9142C3.65781 57.0514 3.49981 57.1601 3.32477 57.2334C3.14973 57.3068 2.96143 57.3431 2.77168 57.3403C2.58569 57.3429 2.40122 57.3064 2.23032 57.2329C2.05941 57.1595 1.9059 57.0509 1.77981 56.9142C1.64842 56.7812 1.54479 56.6234 1.47494 56.4499C1.40509 56.2765 1.37042 56.0909 1.37293 55.904C1.37293 55.5037 1.5084 55.1657 1.77981 54.8863C1.90661 54.7509 2.06039 54.6436 2.23123 54.5712C2.40207 54.4989 2.58618 54.4632 2.77168 54.4663C3.17012 54.4663 3.50949 54.6074 3.78887 54.8915C4.07012 55.176 4.2084 55.5135 4.2084 55.904ZM22.0092 57.0478H19.4161L10.004 42.5128C9.77763 42.1503 9.5866 41.767 9.43356 41.3681H9.35621C9.42371 41.7576 9.45746 42.5929 9.45746 43.8726V57.0478H7.32043V38.812H10.0945L19.2248 53.1182C19.5881 53.6859 19.837 54.0928 19.9631 54.3374H20.0137C19.9293 53.8129 19.8853 52.9185 19.8853 51.6562V38.8124H22.0096L22.0092 57.0478ZM35.7121 57.0478H26.047V38.812H35.2926V40.7446H28.1826V46.8107H34.7704V48.7438H28.1826V55.1146H35.7121V57.0478ZM50.3718 40.7446H45.119V57.0482H42.9825V40.7446H37.7193V38.811H50.3718V40.7446Z" fill="black"/>
<path d="M21.2844 7.3144C23.3465 13.62 24.1269 24.8686 30.1569 24.8686C30.6158 24.8686 31.0799 24.8241 31.5454 24.735C26.0643 23.4567 25.4146 12.331 22.07 6.56909C21.8034 6.81244 21.5415 7.06093 21.2844 7.3144Z" fill="url(#paint0_linear_19_594)"/>
<path d="M22.0701 6.56897C25.4146 12.3308 26.0643 23.4566 31.5454 24.7349C31.9853 24.6519 32.4182 24.535 32.8401 24.3852C27.9201 21.9744 26.5602 11.1702 22.7619 5.96851C22.5318 6.16069 22.3007 6.36085 22.0701 6.56897Z" fill="url(#paint1_linear_19_594)"/>
<path d="M26.8894 3.14261C26.4314 3.14261 25.9664 3.18761 25.5 3.2762C24.2798 3.50636 23.0405 4.03136 21.7908 4.82683C22.1452 5.18071 22.4702 5.56292 22.7625 5.96964C24.0333 4.91542 25.2956 4.13636 26.5533 3.66761C27.0124 3.49607 27.4856 3.36464 27.9675 3.2748C27.6151 3.18562 27.2529 3.14121 26.8894 3.14261Z" fill="#14559A"/>
<path d="M36.6802 22.1634C37.2045 21.7446 37.7094 21.3021 38.1933 20.8373C36.098 14.5612 35.348 3.15186 29.2763 3.15186C28.8422 3.15186 28.4039 3.19217 27.9675 3.27326C33.4978 4.64857 34.2061 16.6819 36.6802 22.1634Z" fill="url(#paint2_linear_19_594)"/>
<path d="M27.9675 3.27384C27.6149 3.18502 27.2525 3.14077 26.8889 3.14212L29.2767 3.15103C28.8422 3.15103 28.4044 3.19134 27.9675 3.27384Z" fill="#3092C4"/>
<path d="M36.5746 23.4965C36.3328 23.2628 36.1043 23.0157 35.8902 22.7563C34.8688 23.4796 33.8507 24.0281 32.8401 24.3853C33.1996 24.561 33.577 24.6913 33.9773 24.7724C34.2961 24.8373 34.6208 24.8695 34.9462 24.8685C36.081 24.8685 36.9777 24.7345 37.7413 24.3679C37.3209 24.1406 36.9351 23.8467 36.5746 23.4965Z" fill="#1969BC"/>
<path d="M26.5527 3.66788C31.507 6.25913 31.9373 17.9929 35.8902 22.7568C36.1551 22.5702 36.4176 22.3724 36.6796 22.1638C34.2051 16.6818 33.4977 4.64757 27.9679 3.27319C27.4857 3.36384 27.0122 3.49589 26.5527 3.66788Z" fill="url(#paint3_linear_19_594)"/>
<path d="M22.762 5.96906C26.5602 11.1708 27.9201 21.975 32.8401 24.3858C33.8516 24.0286 34.8688 23.4802 35.8902 22.7569C31.9373 17.993 31.5065 6.25922 26.5527 3.66797C25.2951 4.13578 24.0327 4.91484 22.762 5.96906Z" fill="url(#paint4_linear_19_594)"/>
<path d="M18.854 7.16249C18.2583 8.50874 17.6503 10.2778 16.9153 12.5878C18.3768 10.5276 19.8347 8.75296 21.284 7.31437C21.1011 6.74136 20.8857 6.17921 20.639 5.63062C20.0169 6.10875 19.421 6.62012 18.854 7.16249Z" fill="url(#paint5_linear_19_594)"/>
<path d="M21.1672 5.24243C20.9924 5.36759 20.8161 5.49556 20.6399 5.63056C20.8865 6.17911 21.1017 6.74127 21.2844 7.31431C21.5421 7.0613 21.8042 6.81282 22.0705 6.56899C21.8033 6.10466 21.5014 5.66121 21.1672 5.24243Z" fill="#2B74B1"/>
<path d="M21.7904 4.82617C21.5828 4.95789 21.376 5.09664 21.1665 5.24195C21.5013 5.66086 21.8034 6.10481 22.0703 6.56992C22.3013 6.36086 22.532 6.15977 22.7621 5.96898C22.47 5.56215 22.145 5.17993 21.7904 4.82617Z" fill="#125A9E"/>
<path d="M55.5806 2.66248C52.7789 13.4672 46.927 22.1461 42.021 24.3337H42.0112L41.7464 24.4467L41.7145 24.4594L41.639 24.4884L41.6053 24.5025L41.4829 24.5456L41.4323 24.5634L41.3714 24.5836L41.3123 24.6042L41.2598 24.6215L41.1553 24.6534L41.1107 24.6651L41.04 24.6844L40.9921 24.6975L40.9153 24.7172L40.821 24.7378C41.0428 24.8198 41.2739 24.8611 41.5228 24.8611C46.1746 24.8611 50.8659 16.5239 58.627 2.65967H55.5796L55.5806 2.66248Z" fill="url(#paint6_linear_19_594)"/>
<path d="M15.9051 3.58136L15.9136 3.57339L15.9243 3.56636H15.9304L16.0059 3.53729L16.0209 3.5298L16.0401 3.52136L16.1212 3.49229H16.1254L16.304 3.42995L16.3303 3.42292L16.4072 3.39995L16.4423 3.3887L16.5192 3.36573L16.5487 3.35823L16.8042 3.29167L16.8393 3.2837L16.9139 3.26917L16.9509 3.25792L17.0259 3.24386H17.0433L17.1989 3.21479H17.2298L17.3015 3.20261L17.3418 3.19511L17.4103 3.1848L17.4487 3.17776L17.6161 3.16276C17.4514 3.14666 17.2861 3.13821 17.1206 3.13745C11.8814 3.13745 4.6631 12.8584 1.41138 25.4471H2.0381C3.01008 23.7096 3.95349 21.9563 4.86794 20.1878C7.1456 11.2712 11.7839 5.18964 15.9042 3.57854" fill="url(#paint7_linear_19_594)"/>
<path d="M18.854 7.16248C19.4211 6.62022 20.017 6.10886 20.639 5.63061C20.5125 5.34909 20.3706 5.07477 20.2138 4.80889C19.7348 5.39061 19.297 6.15748 18.854 7.16248ZM19.2848 3.65482C19.627 3.94123 19.9331 4.33639 20.2138 4.80889C20.2993 4.7037 20.3897 4.60265 20.4848 4.50607C20.1083 4.15059 19.6818 3.85226 19.2187 3.62061L19.2745 3.64732L19.2848 3.65482Z" fill="#0D82CA"/>
<path d="M4.86938 20.19C9.64642 10.9838 11.91 5.15769 15.9056 3.58081C11.7858 5.19284 7.14657 11.2739 4.86938 20.19Z" fill="url(#paint8_linear_19_594)"/>
<path d="M20.4843 4.50659C20.391 4.60175 20.3029 4.70112 20.2134 4.8094C20.3634 5.06065 20.5031 5.33394 20.6395 5.63112C20.8157 5.49565 20.992 5.36815 21.1668 5.24253C20.9567 4.98162 20.7287 4.73571 20.4843 4.50659Z" fill="#127BCA"/>
<path d="M7.03826 25.4076L6.95154 25.4179H6.93514L6.86154 25.4254H6.84936L6.67404 25.4371H6.65576C11.4904 25.3016 13.7011 22.881 14.7979 19.3696C15.6309 16.708 16.3158 14.4655 16.9158 12.584C14.8908 15.4345 12.8559 18.8324 10.8108 22.6391C9.82451 24.4738 8.32451 25.2402 7.03826 25.4038" fill="url(#paint9_linear_19_594)"/>
<path d="M7.03833 25.4058C8.32458 25.2417 9.82458 24.4763 10.8108 22.6406C12.856 18.8353 14.8918 15.4364 16.9149 12.5855C17.6513 10.275 18.2583 8.50689 18.8546 7.16064C14.8215 10.9992 10.7733 17.3822 7.03833 25.4039" fill="url(#paint10_linear_19_594)"/>
<path d="M4.86936 20.1899C3.95448 21.9584 3.01076 23.7117 2.03857 25.4493H3.86154C4.09147 23.6779 4.42786 21.9219 4.86889 20.1909" fill="#05A1E6"/>
<path d="M17.4492 3.18332L17.4103 3.19082L17.3418 3.20066L17.302 3.2077L17.2303 3.22035L17.1993 3.22785L17.0437 3.25504H17.0264L16.9504 3.27004L16.9125 3.27988L16.8389 3.29441L16.8042 3.30285L16.5482 3.36941L16.5187 3.37832L16.4414 3.40129L16.4062 3.4102L16.3298 3.4327L16.3017 3.4402L16.124 3.50254L16.0434 3.53066L16.0096 3.54473L15.9346 3.57285L15.9098 3.58504C11.9146 5.16191 9.65105 10.988 4.87402 20.1938C4.43247 21.9247 4.09592 23.6807 3.86621 25.4522H4.12215L5.8748 25.4447H6.67824L6.85355 25.433H6.8648L6.9384 25.4255H6.95621L7.04293 25.4152C10.7775 17.3939 14.8261 11.011 18.8592 7.17238C19.3021 6.16738 19.7395 5.40004 20.2176 4.81926C19.9378 4.34676 19.6317 3.95066 19.2895 3.66379L19.2796 3.65629L19.2225 3.62863L19.1662 3.60004L19.1114 3.57332L19.0467 3.54613L18.9961 3.5241L18.8901 3.48004L18.8451 3.4627L18.7664 3.43129L18.7237 3.41723L18.614 3.37973H18.6051L18.4781 3.34363L18.4495 3.33473L18.3426 3.30473L18.3178 3.2977C18.23 3.27463 18.1414 3.25524 18.052 3.23957L18.0243 3.23207L17.909 3.21332L17.8865 3.20629L17.7501 3.18848H17.7262L17.6212 3.17676L17.4539 3.19223" fill="url(#paint11_linear_19_594)"/>
<path d="M44.6371 8.64424C43.7179 11.5885 42.9735 14.0175 42.3257 16.0163C44.848 12.5456 47.3319 8.17971 49.6982 3.14111C46.9377 4.00783 45.4658 5.99158 44.6371 8.64424Z" fill="url(#paint12_linear_19_594)"/>
<path d="M42.4054 24.1501C42.2769 24.2157 42.1476 24.2776 42.021 24.3343C46.9269 22.1462 52.7793 13.4673 55.5805 2.6626H55.0129C48.5755 14.161 46.5055 21.8588 42.4054 24.1501Z" fill="url(#paint13_linear_19_594)"/>
<path d="M39.2021 23.184C40.2694 21.8813 41.1389 19.6665 42.3263 16.0159C40.9571 17.8965 39.5789 19.5137 38.1994 20.8318L38.1924 20.8435C38.4933 21.7449 38.8233 22.5413 39.1997 23.1835" fill="#079AE1"/>
<path d="M39.2021 23.1838C38.8388 23.6273 38.4539 23.9648 38.026 24.2151C37.9322 24.2699 37.8375 24.3215 37.741 24.3679C38.1928 24.6117 38.686 24.7748 39.2377 24.8399L39.4824 24.8615H39.4969L39.6146 24.869H40.0139L40.0589 24.8615L40.1471 24.854H40.1897L40.2858 24.8437H40.2928L40.3224 24.8367L40.4246 24.8207H40.4546L40.5694 24.8015H40.5877L40.8169 24.7527C40.1836 24.5217 39.6539 23.9746 39.1974 23.1965" fill="#1969BC"/>
<path d="M30.157 24.8685C30.6159 24.8685 31.0795 24.8235 31.545 24.734C31.9757 24.6557 32.4075 24.5362 32.8396 24.3853C33.4951 24.7067 34.2161 24.8721 34.9462 24.8685H30.157ZM34.9462 24.8685C36.0801 24.8685 36.9778 24.734 37.7409 24.3679C38.205 24.6196 38.7131 24.7798 39.2376 24.84L39.4823 24.861H39.4968L39.6145 24.8685H39.7556H34.9462Z" fill="#1E5CB3"/>
<path d="M39.7556 24.8687H40.0176L40.0626 24.8612L40.1517 24.8537H40.1953L40.2905 24.8434H40.2984L40.3275 24.8363L40.4297 24.8209L40.4606 24.8138L40.5759 24.7951H40.5942L40.8234 24.7463C41.0483 24.829 41.2861 24.8708 41.5256 24.8696L39.757 24.8771L39.7556 24.8687Z" fill="#1D60B5"/>
<path d="M38.1948 20.8439V20.8364C37.711 21.3015 37.206 21.7441 36.6817 22.163C36.4187 22.3716 36.1567 22.5694 35.8914 22.756C36.1056 23.0153 36.3342 23.2624 36.5762 23.4961C36.9371 23.8458 37.322 24.1402 37.7424 24.3675C37.8385 24.3206 37.9337 24.2691 38.027 24.2147C38.4559 23.9644 38.8398 23.6269 39.2035 23.1835C38.8271 22.5413 38.4971 21.7449 38.1967 20.8435" fill="#175FAB"/>
<path d="M53.2148 2.6626H50.3573L49.9045 2.68463L49.6935 3.13557C47.3282 8.17416 44.8438 12.5401 42.3215 16.0112C41.1356 19.6609 40.2651 21.8757 39.1978 23.1788C39.6538 23.9574 40.1849 24.5049 40.8159 24.737L40.8656 24.7262H40.8759L40.9106 24.7182L40.9898 24.6985L41.0367 24.6849L41.1074 24.6662L41.1515 24.654L41.2565 24.6221L41.309 24.6048L41.3681 24.5832L41.4285 24.564L41.4778 24.5453L41.601 24.5021L41.6353 24.4895L41.7107 24.4599L41.7431 24.4482L42.0079 24.3353H42.0168C42.1438 24.279 42.2728 24.2167 42.4007 24.151C46.5023 21.8598 48.5723 14.162 55.0092 2.66354H53.2115L53.2148 2.6626Z" fill="url(#paint14_linear_19_594)"/>
<path d="M17.6169 3.16773L17.6465 3.17523L17.721 3.1832H17.7463L17.8823 3.20055L17.9057 3.20805L18.0205 3.22727L18.0491 3.2343L18.3144 3.29289L18.3384 3.30039L18.4448 3.33039L18.4743 3.3393L18.6004 3.37539L18.6098 3.38289L18.7204 3.42086L18.7626 3.43445L18.8418 3.4668L18.8868 3.48273L18.9918 3.5268L19.0433 3.54883L19.1066 3.57648L19.1629 3.60273L19.2187 3.6318C19.682 3.8635 20.1087 4.162 20.4852 4.51773C20.6282 4.3668 20.7782 4.2318 20.9343 4.10992C20.0835 3.50617 19.1184 3.16211 18.0065 3.16211C17.8776 3.16211 17.7491 3.16961 17.6179 3.17945" fill="#7DCBEC"/>
<path d="M20.4844 4.50645C20.7225 4.72816 20.9508 4.97566 21.1669 5.24238C21.3755 5.09707 21.5827 4.95738 21.7908 4.8266C21.5262 4.55967 21.239 4.31611 20.9325 4.09863C20.7729 4.22288 20.6231 4.35922 20.4844 4.50645Z" fill="#5EC5ED"/>
<path d="M17.4935 3.19896L17.8817 3.18235C18.9939 3.18235 19.9592 3.52551 20.8087 4.12891C21.7078 3.4214 22.7917 3.17289 24.3014 3.17289H16.999L17.4935 3.19896Z" fill="url(#paint15_linear_19_594)"/>
<path d="M24.3014 3.17282C22.7941 3.17282 21.7078 3.42133 20.8086 4.12884C21.1067 4.33944 21.3932 4.58311 21.6653 4.85522C22.9147 4.06016 24.1546 3.53492 25.3756 3.30302C25.8417 3.21547 26.3056 3.17051 26.7647 3.17051L24.3014 3.17282Z" fill="url(#paint16_linear_19_594)"/>
<path d="M42.3257 16.0182C42.9744 14.018 43.7169 11.5899 44.638 8.64472C45.4682 5.99112 46.9372 4.0069 49.6968 3.14112L49.9096 2.69019C45.411 2.95972 43.3086 5.24815 42.2507 8.63722C40.4005 14.5538 39.2793 18.3886 38.2002 20.8327C39.5783 19.5146 40.9564 17.8969 42.3257 16.0182Z" fill="url(#paint17_linear_19_594)"/>
<defs>
<linearGradient id="paint0_linear_19_594" x1="26.5264" y1="3.07109" x2="26.5264" y2="30.3041" gradientUnits="userSpaceOnUse">
<stop stop-color="#0994DC"/>
<stop offset="0.35" stop-color="#66CEF5"/>
<stop offset="0.846" stop-color="#127BCA"/>
<stop offset="1" stop-color="#127BCA"/>
</linearGradient>
<linearGradient id="paint1_linear_19_594" x1="27.4866" y1="2.26411" x2="27.4866" y2="30.2632" gradientUnits="userSpaceOnUse">
<stop stop-color="#0E76BC"/>
<stop offset="0.36" stop-color="#36AEE8"/>
<stop offset="0.846" stop-color="#00ADEF"/>
<stop offset="1" stop-color="#00ADEF"/>
</linearGradient>
<linearGradient id="paint2_linear_19_594" x1="33.0711" y1="24.1914" x2="33.0711" y2="1.97029" gradientUnits="userSpaceOnUse">
<stop stop-color="#1C63B7"/>
<stop offset="0.5" stop-color="#33BDF2"/>
<stop offset="1" stop-color="#33BDF2" stop-opacity="0.42"/>
</linearGradient>
<linearGradient id="paint3_linear_19_594" x1="31.5751" y1="-0.568494" x2="31.5751" y2="28.5017" gradientUnits="userSpaceOnUse">
<stop stop-color="#166AB8"/>
<stop offset="0.4" stop-color="#36AEE8"/>
<stop offset="0.846" stop-color="#0798DD"/>
<stop offset="1" stop-color="#0798DD"/>
</linearGradient>
<linearGradient id="paint4_linear_19_594" x1="29.461" y1="-0.366495" x2="29.461" y2="30.5459" gradientUnits="userSpaceOnUse">
<stop stop-color="#124379"/>
<stop offset="0.39" stop-color="#1487CB"/>
<stop offset="0.78" stop-color="#165197"/>
<stop offset="1" stop-color="#165197"/>
</linearGradient>
<linearGradient id="paint5_linear_19_594" x1="16.6808" y1="8.7356" x2="21.0494" y2="8.7356" gradientUnits="userSpaceOnUse">
<stop stop-color="#33BDF2" stop-opacity="0.698"/>
<stop offset="1" stop-color="#1DACD8"/>
</linearGradient>
<linearGradient id="paint6_linear_19_594" x1="49.7443" y1="23.625" x2="49.7443" y2="1.92283" gradientUnits="userSpaceOnUse">
<stop stop-color="#136AB4"/>
<stop offset="0.6" stop-color="#59CAF5" stop-opacity="0.549"/>
<stop offset="1" stop-color="#59CAF5" stop-opacity="0.235"/>
</linearGradient>
<linearGradient id="paint7_linear_19_594" x1="1.18054" y1="13.9201" x2="17.3811" y2="13.9201" gradientUnits="userSpaceOnUse">
<stop stop-color="#05A1E6" stop-opacity="0.247"/>
<stop offset="1" stop-color="#05A1E6"/>
</linearGradient>
<linearGradient id="paint8_linear_19_594" x1="10.4743" y1="24.2068" x2="10.4743" y2="2.04258" gradientUnits="userSpaceOnUse">
<stop stop-color="#318ED5"/>
<stop offset="1" stop-color="#38A7E4"/>
</linearGradient>
<linearGradient id="paint9_linear_19_594" x1="11.7151" y1="24.2766" x2="11.7151" y2="2.67618" gradientUnits="userSpaceOnUse">
<stop stop-color="#05A1E6"/>
<stop offset="1" stop-color="#05A1E6" stop-opacity="0.549"/>
</linearGradient>
<linearGradient id="paint10_linear_19_594" x1="13.0157" y1="25.4464" x2="13.0157" y2="7.19383" gradientUnits="userSpaceOnUse">
<stop stop-color="#1959A6"/>
<stop offset="0.5" stop-color="#05A1E6"/>
<stop offset="0.918" stop-color="#7EC5EA"/>
<stop offset="1" stop-color="#7EC5EA"/>
</linearGradient>
<linearGradient id="paint11_linear_19_594" x1="13.6105" y1="24.2134" x2="10.1298" y2="4.47334" gradientUnits="userSpaceOnUse">
<stop stop-color="#165096"/>
<stop offset="1" stop-color="#0D82CA"/>
</linearGradient>
<linearGradient id="paint12_linear_19_594" x1="45.9175" y1="13.0212" x2="45.9175" y2="2.67848" gradientUnits="userSpaceOnUse">
<stop stop-color="#05A1E6"/>
<stop offset="0.874" stop-color="#0495D6"/>
<stop offset="1" stop-color="#0495D6"/>
</linearGradient>
<linearGradient id="paint13_linear_19_594" x1="50.9281" y1="1.78498" x2="46.7335" y2="25.5734" gradientUnits="userSpaceOnUse">
<stop stop-color="#38A7E4" stop-opacity="0.329"/>
<stop offset="0.962" stop-color="#0E88D3"/>
<stop offset="1" stop-color="#0E88D3"/>
</linearGradient>
<linearGradient id="paint14_linear_19_594" x1="46.9863" y1="2.62542" x2="46.9863" y2="25.131" gradientUnits="userSpaceOnUse">
<stop stop-color="#168CD4"/>
<stop offset="0.5" stop-color="#1C87CC"/>
<stop offset="1" stop-color="#154B8D"/>
</linearGradient>
<linearGradient id="paint15_linear_19_594" x1="16.4703" y1="0.378129" x2="42.7068" y2="11.2598" gradientUnits="userSpaceOnUse">
<stop stop-color="#97D6EE"/>
<stop offset="0.703" stop-color="#55C1EA"/>
<stop offset="1" stop-color="#55C1EA"/>
</linearGradient>
<linearGradient id="paint16_linear_19_594" x1="23.6465" y1="6.62928" x2="44.3684" y2="-2.76473" gradientUnits="userSpaceOnUse">
<stop stop-color="#7ACCEC"/>
<stop offset="1" stop-color="#3FB7ED"/>
</linearGradient>
<linearGradient id="paint17_linear_19_594" x1="43.9642" y1="3.81927" x2="43.9642" y2="25.8887" gradientUnits="userSpaceOnUse">
<stop stop-color="#1DA7E7"/>
<stop offset="1" stop-color="#37ABE7" stop-opacity="0"/>
</linearGradient>
</defs>
</svg>
