<svg width="45" height="45" viewBox="0 0 60 60" fill="none" xmlns="http://www.w3.org/2000/svg">
<path d="M30.0024 5C16.1899 5 5.00245 16.1875 5.00245 30C4.99944 35.2479 6.64894 40.3635 9.71697 44.6211C12.785 48.8788 17.1158 52.0623 22.0949 53.72C23.3449 53.9375 23.8149 53.1875 23.8149 52.53C23.8149 51.9375 23.7824 49.97 23.7824 47.875C17.5024 49.0325 15.8774 46.345 15.3774 44.9375C15.0949 44.2175 13.8774 42 12.8149 41.405C11.9399 40.9375 10.6899 39.78 12.7824 39.75C14.7524 39.7175 16.1574 41.5625 16.6274 42.3125C18.8774 46.0925 22.4699 45.03 23.9074 44.375C24.1274 42.75 24.7824 41.6575 25.5024 41.0325C19.9399 40.4075 14.1274 38.25 14.1274 28.6875C14.1274 25.9675 15.0949 23.72 16.6899 21.9675C16.4399 21.3425 15.5649 18.78 16.9399 15.3425C16.9399 15.3425 19.0324 14.6875 23.8149 17.9075C25.8501 17.3427 27.9529 17.0584 30.0649 17.0625C32.1899 17.0625 34.3149 17.3425 36.3149 17.905C41.0974 14.655 43.1899 15.345 43.1899 15.345C44.5649 18.7825 43.6899 21.345 43.4399 21.97C45.0324 23.72 46.0024 25.9375 46.0024 28.6875C46.0024 38.2825 40.1599 40.4075 34.5949 41.0325C35.5024 41.8125 36.2849 43.3125 36.2849 45.6575C36.2849 49 36.2524 51.6875 36.2524 52.5325C36.2524 53.1875 36.7224 53.9675 37.9724 53.7175C42.9346 52.0416 47.2462 48.8519 50.3007 44.5973C53.3552 40.3427 54.9987 35.2375 54.9999 30C54.9999 16.1875 43.8124 5 29.9999 5H30.0024Z" fill="#FCA311"/>
</svg>
