<svg width="72.5" height="85" viewBox="0 0 88 100" fill="none" xmlns="http://www.w3.org/2000/svg">
<g clip-path="url(#clip0_16_284)">
<path d="M87.5 15.625V25C87.5 33.6328 67.9102 40.625 43.75 40.625C19.5898 40.625 0 33.6328 0 25V15.625C0 6.99219 19.5898 0 43.75 0C67.9102 0 87.5 6.99219 87.5 15.625ZM76.7969 41.9336C80.8594 40.4883 84.5898 38.6328 87.5 36.3477V56.25C87.5 64.8828 67.9102 71.875 43.75 71.875C19.5898 71.875 0 64.8828 0 56.25V36.3477C2.91016 38.6523 6.64062 40.4883 10.7031 41.9336C19.4727 45.0586 31.1523 46.875 43.75 46.875C56.3477 46.875 68.0273 45.0586 76.7969 41.9336ZM0 67.5977C2.91016 69.9023 6.64062 71.7383 10.7031 73.1836C19.4727 76.3086 31.1523 78.125 43.75 78.125C56.3477 78.125 68.0273 76.3086 76.7969 73.1836C80.8594 71.7383 84.5898 69.8828 87.5 67.5977V84.375C87.5 93.0078 67.9102 100 43.75 100C19.5898 100 0 93.0078 0 84.375V67.5977Z" fill="#FCA311"/>
</g>
<defs>
<clipPath id="clip0_16_284">
<rect width="87.5" height="100" fill="white"/>
</clipPath>
</defs>
</svg>
