 
<svg version="1.1" width="85" height="85" viewBox="0 0 100 100" fill="none" xmlns="http://www.w3.org/2000/svg">
<path d="M50 55.0781C52.8046 55.0781 55.0781 52.8046 55.0781 50C55.0781 47.1954 52.8046 44.9219 50 44.9219C47.1954 44.9219 44.9219 47.1954 44.9219 50C44.9219 52.8046 47.1954 55.0781 50 55.0781Z" fill="#FCA311"/>
<path d="M67.5781 55.0781C70.3827 55.0781 72.6562 52.8046 72.6562 50C72.6562 47.1954 70.3827 44.9219 67.5781 44.9219C64.7736 44.9219 62.5 47.1954 62.5 50C62.5 52.8046 64.7736 55.0781 67.5781 55.0781Z" fill="#FCA311"/>
<path d="M32.4219 55.0781C35.2264 55.0781 37.5 52.8046 37.5 50C37.5 47.1954 35.2264 44.9219 32.4219 44.9219C29.6173 44.9219 27.3438 47.1954 27.3438 50C27.3438 52.8046 29.6173 55.0781 32.4219 55.0781Z" fill="#FCA311"/>
<path d="M31.25 71.875L6.25 50L31.25 28.125M68.75 71.875L93.75 50L68.75 28.125" stroke="#FCA311" stroke-width="6.25" stroke-linecap="round" stroke-linejoin="round"/>
</svg>
