<svg width="60" height="60" viewBox="0 0 60 60" fill="none" xmlns="http://www.w3.org/2000/svg">
<g clip-path="url(#clip0_18_339)">
<path d="M0 0H60V60H0V0Z" fill="#F7DF1E"/>
<path d="M15.7764 50.1403L20.3678 47.3616C21.2537 48.9321 22.0595 50.261 23.9924 50.261C25.8451 50.261 27.0135 49.5364 27.0135 46.7173V27.5459H32.6518V46.797C32.6518 52.6369 29.2285 55.2952 24.234 55.2952C19.7235 55.2952 17.1053 52.9592 15.7761 50.1399M35.7144 49.5361L40.3053 46.8781C41.514 48.8517 43.0848 50.3016 45.8635 50.3016C48.2 50.3016 49.6897 49.1335 49.6897 47.5224C49.6897 45.5892 48.1592 44.9044 45.5816 43.7771L44.1723 43.1724C40.1042 41.441 37.4059 39.266 37.4059 34.6746C37.4059 30.4456 40.6278 27.2234 45.6625 27.2234C49.247 27.2234 51.8246 28.4721 53.6771 31.7344L49.2868 34.5539C48.32 32.8221 47.2733 32.1375 45.6622 32.1375C44.0108 32.1375 42.9636 33.1847 42.9636 34.5539C42.9636 36.2454 44.0108 36.9305 46.4272 37.9777L47.8367 38.5817C52.6297 40.636 55.3281 42.7301 55.3281 47.442C55.3281 52.5171 51.3409 55.2959 45.9842 55.2959C40.7485 55.2959 37.3653 52.7989 35.7142 49.5364" fill="black"/>
</g>
<defs>
<clipPath id="clip0_18_339">
<rect width="60" height="60" fill="white"/>
</clipPath>
</defs>
</svg>
