<svg width="60" height="60" viewBox="0 0 60 60" fill="none" xmlns="http://www.w3.org/2000/svg">
<path d="M54.8193 45.847C51.6023 45.7594 49.1455 46.0589 47.0451 46.9444C46.4483 47.1961 45.4958 47.2031 45.3983 47.9508C45.7265 48.2944 45.7776 48.8081 46.0382 49.231C46.5398 50.0419 47.3863 51.1303 48.1419 51.7003C48.9679 52.3238 49.8187 52.9899 50.7037 53.5294C52.2777 54.4889 54.0351 55.0374 55.5505 55.9988C56.444 56.5659 57.3313 57.2799 58.2027 57.9192C58.634 58.2356 58.9232 58.7274 59.4833 58.9256V58.8347C59.189 58.4597 59.113 57.945 58.843 57.5536L57.6538 56.3644C56.4913 54.8213 55.0152 53.4656 53.4463 52.3402C52.1952 51.442 49.3954 50.2289 48.8737 48.7735L48.7823 48.682C49.6691 48.5817 50.7074 48.2611 51.5263 48.0413C52.9016 47.6728 54.1307 47.768 55.5505 47.4014L57.471 46.8525V46.4869C56.7533 45.7505 56.2415 44.7755 55.4591 44.1089C53.4107 42.3652 51.1757 40.6228 48.8741 39.1697C47.5973 38.3644 46.0199 37.8408 44.6666 37.1578C44.2115 36.9277 43.4118 36.8081 43.1113 36.4256C42.4002 35.52 42.0135 34.3716 41.4655 33.3164C40.3176 31.1053 39.1902 28.6908 38.173 26.3644C37.4793 24.7781 37.026 23.2144 36.1607 21.7913C32.0076 14.963 27.5376 10.8422 20.6127 6.79126C19.139 5.9297 17.3648 5.58986 15.4898 5.14454C14.4843 5.08407 13.4779 5.02267 12.4719 4.96126C11.8574 4.70532 11.219 3.95392 10.6429 3.58923C8.34881 2.13986 2.46413 -1.01249 0.765378 3.1322C-0.307591 5.74829 2.36897 8.30017 3.32569 9.62626C3.99788 10.5553 4.85803 11.5983 5.33803 12.6441C5.65397 13.3317 5.70835 14.0213 5.97882 14.7483C6.64303 16.5399 7.22194 18.4889 8.0821 20.1441C8.51663 20.9822 8.99569 21.8644 9.54553 22.6135C9.8821 23.0733 10.4601 23.2758 10.551 23.9855C9.98663 24.7758 9.95428 26.003 9.63694 27.0042C8.20725 31.5113 8.74678 37.1138 10.8262 40.4494C11.4637 41.4741 12.9669 43.6702 15.0332 42.8274C16.8407 42.0914 16.4371 39.8095 16.9541 37.7967C17.0708 37.3406 16.9991 37.005 17.2283 36.6994V36.7908L18.8751 40.0833C20.0938 42.046 22.2557 44.0967 24.0885 45.4805C25.0387 46.1981 25.7868 47.4384 27.0154 47.8584V47.7666H26.924C26.6858 47.3958 26.3132 47.242 26.0094 46.9439C25.2937 46.2422 24.4977 45.3699 23.9062 44.5659C22.2393 42.3033 20.7665 39.8269 19.4244 37.2492C18.7832 36.0178 18.2258 34.6603 17.6858 33.4074C17.4777 32.9245 17.4805 32.1938 17.0465 31.9439C16.4544 32.8617 15.583 33.6042 15.1255 34.688C14.3938 36.4205 14.2996 38.5336 14.0282 40.7245C13.8679 40.7817 13.9391 40.7424 13.8449 40.8155C12.5708 40.5084 12.1237 39.1974 11.6498 38.0719C10.4526 35.2266 10.2299 30.6459 11.2837 27.3708C11.5565 26.5228 12.7883 23.8547 12.2896 23.0714C12.0515 22.2905 11.2658 21.8386 10.8266 21.2419C10.2824 20.5041 9.7396 19.5328 9.36225 18.6806C8.38256 16.463 7.92507 13.9725 6.89335 11.73C6.39975 10.658 5.56585 9.57282 4.881 8.62032C4.12303 7.56423 3.27366 6.78657 2.68585 5.51017C2.47678 5.05642 2.19319 4.32986 2.50257 3.86345C2.601 3.54892 2.74069 3.41767 3.05147 3.31501C3.5821 2.90579 5.0596 3.45095 5.61178 3.68017C7.0785 4.28954 8.30288 4.86986 9.54553 5.69298C10.1413 6.08861 10.7451 6.85314 11.466 7.06501H12.2891C13.5768 7.36079 15.0191 7.15642 16.2224 7.52204C18.3487 8.16798 20.2541 9.17345 21.9843 10.2661C27.2558 13.5952 31.5665 18.3333 34.5149 23.9859C34.9893 24.8963 35.1946 25.7644 35.6123 26.73C36.4551 28.6767 37.5168 30.6797 38.3554 32.5838C39.1926 34.4831 40.0082 36.3999 41.1913 37.9805C41.8133 38.8111 44.2152 39.2569 45.3074 39.7186C46.0724 40.0416 47.3263 40.3791 48.0515 40.8155C49.4357 41.6508 50.7773 42.645 52.0762 43.56C52.7244 44.017 54.7199 45.0206 54.8193 45.847ZM13.9354 10.9997C13.2646 10.987 12.7902 11.0728 12.2887 11.182V11.2734H12.3801C12.7002 11.9306 13.2651 12.3544 13.6602 12.9202C13.9649 13.5609 14.2701 14.2008 14.5752 14.8406L14.6662 14.7502C15.2329 14.3503 15.4921 13.7124 15.4888 12.7374C15.2619 12.4988 15.2287 12.1997 15.0318 11.9147C14.7712 11.5345 14.2654 11.3184 13.9354 10.9997Z" fill="#00618A"/>
</svg>
