<svg width="60" height="60" viewBox="0 0 60 60" fill="none" xmlns="http://www.w3.org/2000/svg">
<path d="M0 29.9999C0 38.7154 13.4316 45.7813 30 45.7813C46.5684 45.7813 60 38.7154 60 29.9999C60 21.2844 46.568 14.2185 30 14.2185C13.4316 14.2185 0 21.2844 0 29.9999Z" fill="url(#paint0_radial_19_559)"/>
<path d="M30 44.6094C45.9211 44.6094 58.8281 38.068 58.8281 29.9999C58.8281 21.9308 45.9211 15.3904 30 15.3904C14.0789 15.3904 1.17188 21.9308 1.17188 29.9999C1.17188 38.068 14.0789 44.6094 30 44.6094Z" fill="#777BB3"/>
<path d="M16.2993 31.8112C17.6085 31.8112 18.5853 31.5697 19.2036 31.094C19.8158 30.6224 20.2382 29.8063 20.4599 28.6682C20.6661 27.6041 20.5874 26.8616 20.2255 26.4604C19.8561 26.0507 19.0569 25.843 17.8504 25.843H15.7579L14.5986 31.8112H16.2993ZM9.45598 39.1626C9.40797 39.1625 9.36057 39.1518 9.31718 39.1313C9.27379 39.1107 9.23549 39.0808 9.20502 39.0437C9.17455 39.0066 9.15267 38.9632 9.14095 38.9167C9.12923 38.8701 9.12796 38.8215 9.13723 38.7744L12.2108 22.9597C12.2253 22.8858 12.265 22.8192 12.3232 22.7713C12.3813 22.7233 12.4542 22.697 12.5296 22.6968H19.1549C21.2371 22.6968 22.7868 23.2621 23.7613 24.3772C24.74 25.4976 25.0429 27.0651 24.6599 29.0343C24.5038 29.8363 24.2357 30.5812 23.863 31.2487C23.4751 31.9352 22.9801 32.5555 22.3968 33.0862C21.6791 33.7574 20.8668 34.2449 19.9841 34.5313C19.116 34.8144 18.0004 34.9579 16.67 34.9579H13.9869L13.221 38.8991C13.2065 38.9733 13.1667 39.0401 13.1084 39.0882C13.0501 39.1363 12.9769 39.1625 12.9013 39.1626H9.45598Z" fill="black"/>
<path d="M16.0266 26.1684H17.8505C19.3069 26.1684 19.8127 26.4881 19.9847 26.6789C20.2692 26.9948 20.3236 27.6619 20.1398 28.6064C19.9341 29.6644 19.5525 30.4148 19.0055 30.8358C18.4458 31.267 17.5345 31.4855 16.2994 31.4855H14.9934L16.027 26.1689L16.0266 26.1684ZM19.155 22.3716H12.5302C12.3791 22.3716 12.2327 22.4241 12.1161 22.5201C11.9994 22.6161 11.9198 22.7497 11.8908 22.898L8.81719 38.7131C8.79904 38.8073 8.80191 38.9044 8.82561 38.9973C8.84931 39.0903 8.89324 39.1769 8.95428 39.2509C9.01531 39.3249 9.09194 39.3846 9.17868 39.4255C9.26543 39.4665 9.36016 39.4878 9.4561 39.488H12.9014C13.0525 39.4878 13.1988 39.4352 13.3153 39.3391C13.4319 39.243 13.5114 39.1094 13.5403 38.9611L14.2552 35.2833H16.6697C18.0347 35.2833 19.1841 35.1342 20.0855 34.8408C21.0122 34.5398 21.8648 34.0294 22.6195 33.3234C23.2272 32.77 23.7429 32.1233 24.1472 31.4077C24.5367 30.7106 24.817 29.9325 24.9792 29.0963C25.3823 27.023 25.0547 25.3631 24.0061 24.1631C22.9673 22.9739 21.3352 22.3711 19.155 22.3711V22.3716ZM14.2036 32.1361H16.2994C17.6883 32.1361 18.7228 31.875 19.4025 31.3509C20.0827 30.8278 20.5406 29.9541 20.7797 28.7302C21.007 27.5545 20.9034 26.7253 20.468 26.242C20.0316 25.7592 19.1597 25.5173 17.8505 25.5173H15.4898L14.2036 32.1361ZM19.1555 23.0213C21.1486 23.0213 22.6022 23.5448 23.5163 24.5906C24.4303 25.6369 24.705 27.097 24.3413 28.9716C24.1903 29.7441 23.9367 30.45 23.5795 31.0894C23.2214 31.7297 22.7545 32.3147 22.1775 32.8458C21.4894 33.4894 20.7258 33.9483 19.8844 34.2216C19.0434 34.4953 17.9719 34.6317 16.6702 34.6317H13.7189L12.9019 38.8364H9.45656L12.5306 23.0213H19.1555Z" fill="white"/>
<path d="M32.559 34.958C32.5109 34.958 32.4635 34.9474 32.42 34.927C32.3765 34.9065 32.3381 34.8767 32.3076 34.8396C32.277 34.8026 32.255 34.7592 32.2432 34.7126C32.2314 34.6661 32.2301 34.6175 32.2393 34.5703L33.5987 27.5728C33.7285 26.9072 33.6966 26.43 33.5096 26.2275C33.3947 26.1042 33.0507 25.8975 32.033 25.8975H29.5693L27.8602 34.695C27.8455 34.7691 27.8056 34.8358 27.7472 34.8836C27.6888 34.9315 27.6156 34.9576 27.5401 34.9575H24.1229C24.0749 34.9575 24.0274 34.947 23.984 34.9265C23.9406 34.9061 23.9022 34.8763 23.8716 34.8393C23.841 34.8023 23.819 34.759 23.8071 34.7125C23.7951 34.666 23.7937 34.6175 23.8027 34.5703L26.8768 18.7552C26.8913 18.6811 26.9312 18.6143 26.9895 18.5664C27.0478 18.5184 27.121 18.4922 27.1965 18.4922H30.6137C30.6617 18.4922 30.7091 18.5027 30.7525 18.5232C30.796 18.5436 30.8343 18.5734 30.8649 18.6104C30.8955 18.6474 30.9176 18.6907 30.9295 18.7372C30.9414 18.7837 30.9429 18.8322 30.9338 18.8794L30.1922 22.6969H32.8421C34.861 22.6969 36.2297 23.0522 37.0271 23.7848C37.8394 24.5316 38.0935 25.7255 37.7808 27.3347L36.3507 34.695C36.336 34.769 36.2961 34.8356 36.2378 34.8835C36.1795 34.9314 36.1064 34.9575 36.031 34.9575H32.559V34.958Z" fill="black"/>
<path d="M30.6142 18.1665H27.1965C27.0454 18.1665 26.8989 18.2191 26.7823 18.3152C26.6657 18.4114 26.5861 18.545 26.5571 18.6934L23.4835 34.5081C23.4653 34.6023 23.4681 34.6994 23.4918 34.7924C23.5154 34.8855 23.5594 34.9721 23.6204 35.0462C23.6815 35.1203 23.7581 35.1799 23.8449 35.2209C23.9317 35.2619 24.0265 35.2833 24.1224 35.2834H27.5401C27.6912 35.2833 27.8377 35.2308 27.9543 35.1346C28.071 35.0385 28.1506 34.9049 28.1795 34.7565L29.8374 26.2229H32.0321C33.0484 26.2229 33.2621 26.4399 33.2701 26.4498C33.332 26.5154 33.4131 26.8224 33.279 27.511L31.9196 34.5081C31.9014 34.6023 31.9042 34.6995 31.9279 34.7925C31.9516 34.8856 31.9956 34.9723 32.0567 35.0464C32.1178 35.1204 32.1945 35.1801 32.2813 35.2211C32.3682 35.2621 32.463 35.2833 32.559 35.2834H36.0315C36.1826 35.2832 36.3289 35.2306 36.4454 35.1345C36.562 35.0384 36.6415 34.9048 36.6704 34.7565L38.1006 27.3971C38.4357 25.6693 38.1489 24.3737 37.2474 23.5454C36.3868 22.7551 34.9459 22.3712 32.8421 22.3712H30.5874L31.2535 18.9423C31.2719 18.848 31.2691 18.7508 31.2454 18.6577C31.2218 18.5645 31.1778 18.4778 31.1167 18.4037C31.0556 18.3295 30.9789 18.2698 30.892 18.2288C30.8051 18.1878 30.7102 18.1665 30.6142 18.1665ZM30.6142 18.8181L29.7971 23.0218H32.8421C34.7579 23.0218 36.0798 23.3565 36.8064 24.0249C37.5343 24.6934 37.7518 25.7757 37.4617 27.2734L36.031 34.6323H32.559L33.9189 27.6348C34.0735 26.8388 34.0164 26.296 33.7478 26.0063C33.4792 25.7171 32.9073 25.5723 32.0331 25.5723H29.3007L27.5401 34.6318H24.122L27.196 18.8167H30.6142V18.8181Z" fill="white"/>
<path d="M43.1887 31.8112C44.4979 31.8112 45.4752 31.5697 46.094 31.094C46.7052 30.6224 47.1281 29.8063 47.3498 28.6682C47.556 27.6041 47.4777 26.8616 47.1154 26.4604C46.746 26.0507 45.9468 25.843 44.7402 25.843H42.6482L41.4881 31.8112H43.1887ZM36.3468 39.1626C36.2987 39.1626 36.2512 39.152 36.2077 39.1316C36.1642 39.1111 36.1258 39.0812 36.0952 39.0441C36.0646 39.007 36.0427 38.9635 36.0309 38.9169C36.0191 38.8703 36.0178 38.8216 36.0271 38.7744L39.1007 22.9597C39.1153 22.8857 39.1551 22.8189 39.2134 22.771C39.2717 22.723 39.3449 22.6968 39.4204 22.6968H46.0452C48.1274 22.6968 49.6771 23.2621 50.6512 24.3772C51.6304 25.4976 51.9327 27.0651 51.5498 29.0343C51.4034 29.81 51.1346 30.5574 50.7534 31.2487C50.3653 31.9351 49.8704 32.5554 49.2871 33.0862C48.5699 33.7574 47.7566 34.2449 46.8745 34.5313C46.0063 34.8144 44.8907 34.9579 43.5599 34.9579H40.8773L40.1118 38.8991C40.0973 38.9734 40.0575 39.0403 39.999 39.0883C39.9406 39.1364 39.8673 39.1627 39.7916 39.1626H36.3468Z" fill="black"/>
<path d="M42.9165 26.1684H44.7404C46.1968 26.1684 46.7026 26.4881 46.8741 26.6789C47.1601 26.9948 47.2135 27.6619 47.0302 28.6064C46.824 29.6644 46.4424 30.4148 45.8954 30.8358C45.3352 31.267 44.424 31.4855 43.1893 31.4855H41.8833L42.9165 26.1684ZM46.0449 22.3716H39.4201C39.2691 22.3717 39.1228 22.4242 39.0063 22.5203C38.8897 22.6163 38.8101 22.7498 38.7811 22.898L35.7071 38.7131C35.6889 38.8074 35.6918 38.9045 35.7155 38.9975C35.7393 39.0905 35.7832 39.1771 35.8443 39.2511C35.9054 39.3251 35.9821 39.3847 36.0689 39.4257C36.1557 39.4666 36.2505 39.4879 36.3465 39.488H39.7918C39.9428 39.4878 40.0891 39.4352 40.2057 39.3391C40.3222 39.243 40.4018 39.1094 40.4307 38.9611L41.1455 35.2833H43.5596C44.9241 35.2833 46.074 35.1342 46.9749 34.8408C47.9021 34.5398 48.7547 34.0294 49.5099 33.323C50.1174 32.7696 50.6329 32.1231 51.0371 31.4077C51.4271 30.7106 51.7065 29.9325 51.8691 29.0963C52.2722 27.023 51.9451 25.3631 50.896 24.1631C49.8572 22.9739 48.2255 22.3711 46.0444 22.3711L46.0449 22.3716ZM41.0935 32.1361H43.1888C44.5782 32.1361 45.6122 31.875 46.2929 31.3509C46.9726 30.8278 47.431 29.9541 47.6691 28.7302C47.8974 27.5545 47.7938 26.7253 47.3574 26.242C46.9215 25.7592 46.0491 25.5173 44.7404 25.5173H42.3802L41.0935 32.1361ZM46.0449 23.0213C48.0375 23.0213 49.4921 23.5448 50.4057 24.5906C51.3197 25.6369 51.5949 27.097 51.2302 28.9716C51.0802 29.7441 50.8261 30.45 50.469 31.0894C50.1113 31.7297 49.644 32.3147 49.0665 32.8458C48.3788 33.4894 47.6147 33.9483 46.7733 34.2216C45.9329 34.4953 44.8618 34.6317 43.5596 34.6317H40.6088L39.7908 38.8364H36.3455L39.4196 23.0213H46.0449Z" fill="white"/>
<defs>
<radialGradient id="paint0_radial_19_559" cx="0" cy="0" r="1" gradientUnits="userSpaceOnUse" gradientTransform="translate(18.0122 19.7666) scale(39.3944)">
<stop stop-color="#AEB2D5"/>
<stop offset="0.3" stop-color="#AEB2D5"/>
<stop offset="0.75" stop-color="#484C89"/>
<stop offset="1" stop-color="#484C89"/>
</radialGradient>
</defs>
</svg>
