<svg width="60" height="60" viewBox="0 0 60 60" fill="none" xmlns="http://www.w3.org/2000/svg">
<path d="M29.7844 3.93754C16.4719 3.93754 17.3138 9.69379 17.3138 9.69379V15.675H29.9738V17.55H12.2719C12.2719 17.55 3.75 16.5 3.75 30.0094C3.75 43.5188 11.2744 42.9694 11.2744 42.9694H15.6187V36.6675C15.6187 36.6675 15.375 29.1432 22.9312 29.1432H35.61C35.61 29.1432 42.6825 29.2557 42.6825 22.2957V10.875C42.6825 10.875 43.755 3.91504 29.8537 3.91504L29.7844 3.93754ZM22.7869 7.94441C23.2369 7.93306 23.6803 8.05543 24.0608 8.29604C24.4413 8.53666 24.742 8.88471 24.9247 9.29619C25.1074 9.70767 25.164 10.1641 25.0873 10.6077C25.0106 11.0514 24.804 11.4623 24.4938 11.7885C24.1835 12.1148 23.7835 12.3417 23.3443 12.4406C22.905 12.5395 22.4464 12.5059 22.0262 12.3441C21.6061 12.1823 21.2434 11.8995 20.9839 11.5316C20.7245 11.1636 20.58 10.727 20.5688 10.2769V10.2394C20.5688 9.63571 20.8086 9.05674 21.2354 8.62986C21.6623 8.20298 22.2413 7.96316 22.845 7.96316L22.7869 7.94441Z" fill="url(#paint0_linear_18_354)"/>
<path d="M30.1593 56.0812C43.4717 56.0812 42.6299 50.3062 42.6299 50.3062V44.3437H29.9718V42.4687H47.728C47.728 42.4687 56.2499 43.4212 56.2499 29.9906C56.2499 16.56 48.7255 17.0306 48.7255 17.0306H44.3249V23.25C44.3249 23.25 44.5686 30.7743 37.0124 30.7743H24.328C24.328 30.7743 17.2499 30.6675 17.2499 37.6275V49.125C17.2499 49.125 16.1774 56.085 30.0786 56.085H30.1536L30.1593 56.0812ZM37.1568 52.0556C36.7067 52.0669 36.2633 51.9446 35.8828 51.704C35.5023 51.4633 35.2017 51.1153 35.019 50.7038C34.8362 50.2923 34.7797 49.8359 34.8564 49.3923C34.9331 48.9486 35.1396 48.5377 35.4499 48.2115C35.7601 47.8852 36.1601 47.6583 36.5994 47.5594C37.0386 47.4605 37.4973 47.4941 37.9174 47.6559C38.3375 47.8177 38.7003 48.1005 38.9597 48.4684C39.2191 48.8364 39.3636 49.273 39.3749 49.7231V49.7793C39.3749 50.383 39.1351 50.962 38.7082 51.3889C38.2813 51.8158 37.7023 52.0556 37.0986 52.0556H37.1568Z" fill="url(#paint1_linear_18_354)"/>
<defs>
<linearGradient id="paint0_linear_18_354" x1="8.93842" y1="9.04298" x2="33.8509" y2="33.899" gradientUnits="userSpaceOnUse">
<stop stop-color="#387EB8"/>
<stop offset="1" stop-color="#366994"/>
</linearGradient>
<linearGradient id="paint1_linear_18_354" x1="23.6764" y1="25.2348" x2="52.1393" y2="50.0834" gradientUnits="userSpaceOnUse">
<stop stop-color="#FFE052"/>
<stop offset="1" stop-color="#FFC331"/>
</linearGradient>
</defs>
</svg>
