<svg width="60" height="60" viewBox="0 0 60 60" fill="none" xmlns="http://www.w3.org/2000/svg">
<path d="M43.4851 6.07886H10.5432C9.47942 6.08183 8.46007 6.50572 7.70787 7.25792C6.95567 8.01012 6.53178 9.02947 6.52881 10.0932V46.4232C6.53178 47.487 6.95567 48.5063 7.70787 49.2585C8.46007 50.0107 9.47942 50.4346 10.5432 50.4376H32.2407C31.9932 39.6414 35.6813 18.6901 43.4851 6.07886Z" fill="#0F80CC"/>
<path d="M42.2888 7.25073H10.5432C9.78961 7.25172 9.06719 7.55152 8.53433 8.08438C8.00147 8.61723 7.70168 9.33966 7.70068 10.0932V43.772C15.845 40.7003 24.4421 38.9997 33.1426 38.7395C35.4437 28.0404 38.5001 17.5178 42.2888 7.25073Z" fill="url(#paint0_linear_18_417)"/>
<path d="M51.1687 4.88994C48.9187 2.87806 46.1812 3.68619 43.4812 6.07869C43.0819 6.43494 42.6825 6.82869 42.285 7.25056C37.2058 13.2576 33.6937 20.4293 32.0625 28.1249C32.566 29.2235 32.964 30.3674 33.2512 31.5412C33.3187 31.8037 33.3806 32.0512 33.4387 32.2612C33.555 32.7581 33.6262 33.0806 33.6262 33.0806C33.6262 33.0806 33.585 32.9249 33.4144 32.4318L33.3037 32.1131C33.2814 32.0537 33.2577 31.995 33.2325 31.9368C32.9325 31.2374 32.1075 29.7618 31.7325 29.1243C31.4194 30.0487 31.1419 30.9131 30.9112 31.6949C31.6897 33.3693 32.2614 35.1323 32.6137 36.9449C32.6137 36.9449 32.5575 36.7293 32.2931 35.9793C31.7851 34.884 31.2219 33.8151 30.6056 32.7768C30.207 33.8054 30.0381 34.9086 30.1106 36.0093C30.5236 36.8326 30.834 37.7035 31.035 38.6024C31.6612 41.0081 32.0962 43.9387 32.0962 43.9387L32.1337 44.4318C32.0514 46.4355 32.0921 48.4424 32.2556 50.4412C32.3486 52.4202 32.7171 54.3765 33.3506 56.2537L33.6881 56.0662C32.9025 53.2449 32.5995 50.311 32.7919 47.3887C33.1448 41.1932 34.3681 35.0782 36.4256 29.2237C40.1944 19.2712 45.4256 11.2837 50.2069 7.47369C45.8456 11.4112 39.9431 24.1612 38.175 28.8824C36.3131 33.7435 34.8985 38.7643 33.9487 43.8824C35.0791 41.0261 37.2923 38.7321 40.1062 37.4999C40.1062 37.4999 42.4181 34.6481 45.12 30.5756C43.3744 30.9396 41.65 31.3984 39.9544 31.9499C38.6419 32.5012 38.2875 32.6887 38.2875 32.6887C40.793 31.1798 43.4399 29.9195 46.1906 28.9256C51.2081 21.0224 56.6756 9.80056 51.1706 4.88056" fill="#003B57"/>
<defs>
<linearGradient id="paint0_linear_18_417" x1="24.9546" y1="8.0747" x2="24.9546" y2="41.822" gradientUnits="userSpaceOnUse">
<stop stop-color="#97D9F6"/>
<stop offset="0.92" stop-color="#0F80CC"/>
<stop offset="1" stop-color="#0F80CC"/>
</linearGradient>
</defs>
</svg>
